# xmcd
#
# Track frame offsets:
#	150
#	16079
#	33348
#	50080
#	62512
#	75247
#	90949
#	106288
#	122709
#	137176
#	153322
#	167174
#	182172
#	195544
#	210536
#
# Disc length: 2965 seconds
#
# Revision: 0
# Processed by: cddbd v1.4PL0 Copyright (c) Steve Scherf et al.
# Submitted via: audiograbber 1.81.03
#
DISCID=b90b930f
DTITLE=Tanya Tucker - Tanya Tucker   Disc Two
DYEAR=1994
DGENRE=Country
TTITLE0=If It Don't Come Easy
TTITLE1=Love Me Like You Used To
TTITLE2=I Won't Take Less Than Your Love
TTITLE3=Strong Enough To Bend
TTITLE4=Daddy And Home
TTITLE5=Highway Robbery
TTITLE6=Call On Me
TTITLE7=Playing For Keeps
TTITLE8=Same Old Story
TTITLE9=My Arms Stay Open All Night
TTITLE10=Take Another Run
TTITLE11=As Long As There's A Heartbeat
TTITLE12=It Won't Be Me
TTITLE13=Don't Go Out With Him (Duet With T. Graham Brown)
TTITLE14=Walking Shoes
EXTD=
EXTT0=
EXTT1=
EXTT2=
EXTT3=
EXTT4=
EXTT5=
EXTT6=
EXTT7=
EXTT8=
EXTT9=
EXTT10=
EXTT11=
EXTT12=
EXTT13=
EXTT14=
PLAYORDER=
